<svg aria-hidden="true" style="position: absolute; width: 0; height: 0; overflow: hidden;" version="1.1" xmlns="http://www.w3.org/2000/svg" xmlns:xlink="http://www.w3.org/1999/xlink">
<defs>
<symbol id="icon-typeform" viewBox="0 0 32 32">
<path fill="#00c8ce" style="fill: var(--color1, #00c8ce)" d="M22.915 0.102h3.124v31.845h-3.124v-31.845z"></path>
<path fill="#00c8ce" style="fill: var(--color1, #00c8ce)" d="M5.968 7.355h3.915v-7.288h5.188v7.288h4.688v3.997h-4.688v12.978c0 0.564 0.023 1.050 0.068 1.457 0.045 0.408 0.151 0.752 0.318 1.035s0.417 0.493 0.752 0.635c0.333 0.141 0.788 0.212 1.365 0.212 0.364 0 0.728-0.007 1.092-0.024 0.364-0.015 0.728-0.070 1.092-0.164v4.138c-0.577 0.062-1.138 0.125-1.684 0.188-0.503 0.060-1.085 0.094-1.675 0.094-0.003 0-0.007 0-0.010 0h0c-1.366 0-2.466-0.134-3.3-0.399-0.835-0.266-1.487-0.659-1.957-1.176-0.471-0.517-0.789-1.168-0.956-1.952-0.167-0.783-0.266-1.676-0.295-2.68v-14.341h-3.915v-3.997z"></path>
</symbol>
<symbol id="icon-notion" viewBox="0 0 32 32">
<path d="M5.945 5.611c0.995 0.808 1.368 0.747 3.237 0.621l17.62-1.057c0.373 0 0.063-0.373-0.061-0.435l-2.928-2.116c-0.56-0.435-1.308-0.933-2.74-0.809l-17.060 1.245c-0.621 0.061-0.747 0.373-0.499 0.621zM7.003 9.717v18.539c0 0.996 0.497 1.369 1.619 1.307l19.364-1.12c1.121-0.061 1.247-0.747 1.247-1.556v-18.415c0-0.808-0.311-1.244-0.997-1.183l-20.236 1.183c-0.747 0.063-0.996 0.436-0.996 1.245zM26.119 10.711c0.124 0.56 0 1.12-0.56 1.184l-0.933 0.187v13.685c-0.811 0.436-1.557 0.685-2.18 0.685-0.997 0-1.247-0.312-1.993-1.244l-6.103-9.581v9.269l1.931 0.437c0 0 0 1.12-1.557 1.12l-4.296 0.248c-0.124-0.248 0-0.871 0.436-0.995l1.12-0.311v-12.257l-1.553-0.125c-0.125-0.56 0.187-1.368 1.057-1.431l4.608-0.311 6.352 9.705v-8.587l-1.62-0.185c-0.124-0.685 0.373-1.183 0.996-1.244zM2.581 1.38l17.747-1.307c2.179-0.187 2.74-0.063 4.109 0.933l5.665 3.981c0.933 0.684 1.245 0.871 1.245 1.617v21.837c0 1.368-0.497 2.179-2.24 2.301l-20.611 1.245c-1.307 0.063-1.931-0.124-2.616-0.996l-4.172-5.413c-0.747-0.996-1.057-1.741-1.057-2.613v-19.411c0-1.119 0.499-2.053 1.929-2.176z"></path>
</symbol>
<symbol id="icon-twitter" viewBox="0 0 32 32">
<path d="M32 7.075c-1.175 0.525-2.444 0.875-3.769 1.031 1.356-0.813 2.394-2.1 2.887-3.631-1.269 0.75-2.675 1.3-4.169 1.594-1.2-1.275-2.906-2.069-4.794-2.069-3.625 0-6.563 2.938-6.563 6.563 0 0.512 0.056 1.012 0.169 1.494-5.456-0.275-10.294-2.888-13.531-6.862-0.563 0.969-0.887 2.1-0.887 3.3 0 2.275 1.156 4.287 2.919 5.463-1.075-0.031-2.087-0.331-2.975-0.819 0 0.025 0 0.056 0 0.081 0 3.181 2.263 5.838 5.269 6.437-0.55 0.15-1.131 0.231-1.731 0.231-0.425 0-0.831-0.044-1.237-0.119 0.838 2.606 3.263 4.506 6.131 4.563-2.25 1.762-5.075 2.813-8.156 2.813-0.531 0-1.050-0.031-1.569-0.094 2.913 1.869 6.362 2.95 10.069 2.95 12.075 0 18.681-10.006 18.681-18.681 0-0.287-0.006-0.569-0.019-0.85 1.281-0.919 2.394-2.075 3.275-3.394z"></path>
</symbol>
<symbol id="icon-appleinc" viewBox="0 0 32 32">
<path d="M24.734 17.003c-0.040-4.053 3.305-5.996 3.454-6.093-1.88-2.751-4.808-3.127-5.851-3.171-2.492-0.252-4.862 1.467-6.127 1.467-1.261 0-3.213-1.43-5.28-1.392-2.716 0.040-5.221 1.579-6.619 4.012-2.822 4.897-0.723 12.151 2.028 16.123 1.344 1.944 2.947 4.127 5.051 4.049 2.026-0.081 2.793-1.311 5.242-1.311s3.138 1.311 5.283 1.271c2.18-0.041 3.562-1.981 4.897-3.931 1.543-2.255 2.179-4.439 2.216-4.551-0.048-0.022-4.252-1.632-4.294-6.473zM20.705 5.11c1.117-1.355 1.871-3.235 1.665-5.11-1.609 0.066-3.559 1.072-4.713 2.423-1.036 1.199-1.942 3.113-1.699 4.951 1.796 0.14 3.629-0.913 4.747-2.264z"></path>
</symbol>
</defs>
</svg>
