<svg xmlns="http://www.w3.org/2000/svg" xmlns:xlink="http://www.w3.org/1999/xlink" xmlns:svgjs="http://svgjs.com/svgjs" id="SvgjsSvg1001" version="1.1" viewBox="38.5 123.65 211 40.71"><defs id="SvgjsDefs1002"/><g id="SvgjsG1008"><svg xmlns="http://www.w3.org/2000/svg" enable-background="new 0 0 1080 1080" viewBox="0 0 1080 1080" width="288" height="288"><path d="M144.38 614.29V469.78h22.27v144.51H144.38zM187.15 561.68c0-10.08 2-19.26 6.01-27.52 4.01-8.27 9.49-14.86 16.46-19.76 6.96-4.91 14.98-7.36 24.05-7.36 8.01 0 15.21 2.11 21.58 6.31 6.37 4.21 11.27 9.36 14.69 15.47v-63.1h21.68v123.34c0 2.44.46 4.24 1.38 5.39.92 1.15 2.43 1.8 4.53 1.93v17.91c-3.94.68-7.1 1.08-9.46 1.22-4.08 0-7.49-1.25-10.25-3.76-2.76-2.51-4.27-5.46-4.53-8.85l-.2-7.73c-4.08 6.65-9.43 11.84-16.07 15.57-6.64 3.73-13.57 5.6-20.8 5.6-7.1 0-13.63-1.45-19.61-4.33-5.98-2.89-11.17-6.86-15.57-11.9-4.4-5.04-7.82-10.82-10.25-17.34C188.37 576.23 187.15 569.21 187.15 561.68zM269.95 576.32v-27.49c-1.45-4.28-3.78-8.09-7-11.44-3.22-3.34-6.83-6.05-10.84-8.13-4.01-2.07-8.05-3.11-12.12-3.11-4.47 0-8.57 1-12.32 3.01-3.75 2.01-6.97 4.65-9.66 7.92-2.7 3.28-4.77 7.09-6.21 11.44-1.45 4.35-2.17 8.86-2.17 13.54 0 4.68.79 9.17 2.37 13.44 1.58 4.28 3.84 8.06 6.8 11.34 2.96 3.28 6.37 5.82 10.25 7.62 3.87 1.81 8.11 2.71 12.71 2.71 2.89 0 5.82-.5 8.77-1.5 2.96-1 5.75-2.44 8.38-4.31 2.63-1.87 4.93-4.12 6.9-6.72S269.16 579.27 269.95 576.32zM365.94 616.32c-8.15 0-15.44-1.45-21.88-4.34-6.44-2.89-12.02-6.87-16.76-11.92-4.73-5.05-8.38-10.84-10.94-17.37-2.56-6.53-3.84-13.43-3.84-20.71 0-10.06 2.23-19.26 6.7-27.57 4.47-8.32 10.74-14.96 18.83-19.93 8.08-4.97 17.38-7.45 27.89-7.45 10.91 0 20.27 2.52 28.09 7.56 7.82 5.04 13.9 11.66 18.23 19.85 4.34 8.2 6.51 16.99 6.51 26.4 0 1.62-.07 3.13-.2 4.54-.13 1.41-.27 2.52-.4 3.32h-82.79c.66 6.3 2.43 11.75 5.32 16.37 2.89 4.62 6.63 8.24 11.24 10.85 4.6 2.61 9.46 3.92 14.59 3.92 5.91 0 11.46-1.49 16.66-4.48 5.19-2.98 8.7-6.92 10.55-11.8l18.53 5.5c-2.24 5.16-5.65 9.8-10.25 13.94-4.6 4.14-9.95 7.4-16.07 9.77C379.84 615.13 373.17 616.32 365.94 616.32zM334.99 554.04h62.29c-.53-6.12-2.2-11.44-5.03-15.96-2.83-4.52-6.54-8.08-11.14-10.68-4.6-2.59-9.59-3.89-14.98-3.89-5.52 0-10.55 1.3-15.08 3.89-4.53 2.59-8.25 6.15-11.14 10.68C337.03 542.6 335.39 547.93 334.99 554.04zM429.02 583.45c0-6.72 1.87-12.6 5.62-17.65 3.75-5.04 8.94-8.94 15.57-11.7 6.64-2.76 14.22-4.13 22.77-4.13 4.6 0 9.26.38 14 1.12 4.73.75 9 1.8 12.81 3.16v-6.68c0-7.35-2.17-13.09-6.51-17.23-4.34-4.14-10.58-6.21-18.73-6.21-5.78 0-11.24 1.02-16.36 3.05-5.12 2.04-10.58 5.09-16.36 9.16l-7.1-15.26c6.57-4.61 13.34-8.11 20.3-10.48 6.97-2.37 14.26-3.56 21.88-3.56 13.8 0 24.64 3.72 32.53 11.17 7.88 7.45 11.83 18.01 11.83 31.69v39.24c0 2.55.46 4.36 1.38 5.44.92 1.08 2.43 1.68 4.53 1.81v17.91c-1.97.41-3.71.68-5.22.81-1.51.13-2.79.27-3.84.41-4.73-.14-8.28-1.36-10.64-3.66-2.37-2.31-3.75-5.02-4.14-8.14l-.59-6.11c-4.34 5.97-10.02 10.58-17.05 13.84-7.03 3.26-14.09 4.88-21.19 4.88-6.84 0-12.95-1.45-18.33-4.33-5.39-2.89-9.59-6.82-12.62-11.8C430.53 595.22 429.02 589.64 429.02 583.45zM494.66 590.03c1.44-1.87 2.66-3.67 3.65-5.4.99-1.74 1.48-3.34 1.48-4.8v-11.81c-3.68-1.47-7.56-2.57-11.63-3.3-4.08-.73-8.02-1.1-11.83-1.1-8.02 0-14.49 1.6-19.42 4.8-4.93 3.2-7.39 7.61-7.39 13.21 0 3.07.82 5.97 2.46 8.71 1.64 2.73 4.01 5.01 7.1 6.81 3.09 1.8 6.87 2.7 11.33 2.7 4.86 0 9.46-.97 13.8-2.9C488.55 595 492.03 592.7 494.66 590.03zM636.19 616.32c-7.49 0-13.34-2.11-17.54-6.33-4.21-4.22-6.31-9.87-6.31-16.94v-87.78c0-3.81-.53-7.45-1.58-10.92-1.05-3.47-2.89-6.26-5.52-8.37-2.63-2.11-6.44-3.16-11.43-3.16-4.34 0-7.92 1.05-10.74 3.15-2.83 2.11-4.9 5.06-6.21 8.85-1.32 3.8-2.04 8.14-2.17 13.02v2.85h18.92v17.1h-18.92v86.5h-21.68v-86.5h-13.8v-17.1h13.8v-6.31c0-8.55 1.58-15.84 4.73-21.88 3.15-6.04 7.75-10.68 13.8-13.94 6.04-3.26 13.34-4.89 21.88-4.89 13.67 0 23.85 3.39 30.55 10.18 6.7 6.79 10.05 15.67 10.05 26.66v82.84c0 5.02.76 8.38 2.27 10.07 1.51 1.7 3.45 2.54 5.81 2.54 2.63 0 5.19-.37 7.69-1.12 2.5-.74 4.47-1.39 5.91-1.93l3.15 18.42c-1.45.69-3.52 1.38-6.21 2.08-2.69.69-5.45 1.35-8.28 1.97C641.55 616.01 638.82 616.32 636.19 616.32zM717.6 616.32c-8.15 0-15.44-1.45-21.88-4.33-6.44-2.89-11.99-6.89-16.66-12-4.66-5.11-8.25-10.92-10.74-17.44-2.5-6.52-3.75-13.41-3.75-20.67 0-7.53 1.25-14.55 3.75-21.07 2.49-6.52 6.08-12.33 10.74-17.44 4.66-5.11 10.25-9.11 16.76-12s13.76-4.34 21.78-4.34c8.15 0 15.4 1.45 21.78 4.34 6.37 2.89 11.93 6.89 16.66 12 4.73 5.11 8.34 10.92 10.84 17.44 2.49 6.52 3.75 13.54 3.75 21.07 0 7.26-1.25 14.15-3.75 20.67-2.5 6.52-6.08 12.34-10.74 17.44-4.67 5.11-10.25 9.11-16.76 12C732.88 614.88 725.62 616.32 717.6 616.32zM686.85 561.68c0 6.82 1.38 12.91 4.14 18.26 2.76 5.35 6.44 9.57 11.04 12.64 4.6 3.08 9.72 4.61 15.38 4.61 5.91 0 11.17-1.54 15.77-4.61 4.6-3.07 8.28-7.36 11.04-12.84 2.76-5.48 4.14-11.5 4.14-18.06 0-6.69-1.38-12.74-4.14-18.16-2.76-5.42-6.47-9.66-11.14-12.74-4.67-3.08-9.83-4.61-15.47-4.61-5.78 0-10.97 1.61-15.57 4.82-4.6 3.21-8.28 7.49-11.04 12.84C688.23 549.17 686.85 555.12 686.85 561.68zM914.92 508.66h20.7l-43.37 105.63h-18.53L855 566.63l-18.53 47.66h-18.33l-43.56-105.63h20.7l33.12 84.22 14.59-39.18-17.74-44.84h18.33L855 541.98l11.43-33.12h18.53l-17.54 44.84L882 592.88 914.92 508.66z" fill="#ffffff" class="color000 svgShape"/></svg></g></svg>